<svg xmlns="http://www.w3.org/2000/svg" xmlns:xlink="http://www.w3.org/1999/xlink" version="1.1" width="3024" height="3024" viewBox="0 0 3024 3024" xml:space="preserve">
<desc>Created with Fabric.js 3.5.0</desc>
<defs>
</defs>
<rect x="0" y="0" width="100%" height="100%" fill="rgba(255,255,255,0)"/>
<g transform="matrix(5.8368 0 0 5.8368 1511.9991 1511.9991)" id="519290">
<path style="stroke: none; stroke-width: 1; stroke-dasharray: none; stroke-linecap: butt; stroke-dashoffset: 0; stroke-linejoin: miter; stroke-miterlimit: 4; is-custom-font: none; font-file-url: none; fill: rgb(0,0,0); fill-rule: nonzero; opacity: 1;" vector-effect="non-scaling-stroke" transform=" translate(-256, -256)" d="M 256 48 C 141.1 48 48 141.1 48 256 s 93.1 208 208 208 c 114.9 0 208 -93.1 208 -208 S 370.9 48 256 48 z M 256 446.7 c -105.1 0 -190.7 -85.5 -190.7 -190.7 c 0 -105.1 85.5 -190.7 190.7 -190.7 c 105.1 0 190.7 85.5 190.7 190.7 C 446.7 361.1 361.1 446.7 256 446.7 z" stroke-linecap="round"/>
</g>
<g transform="matrix(1 0 0 1 1512.0001 1512)" style="" id="17840">
		
<path xml:space="preserve" font-family="Montserrat" font-size="719" font-style="normal" font-weight="bold" style="stroke: none; stroke-width: 1; stroke-dasharray: none; stroke-linecap: butt; stroke-dashoffset: 0; stroke-linejoin: miter; stroke-miterlimit: 4; is-custom-font: none; font-file-url: none; fill: rgb(0,0,0); fill-rule: nonzero; opacity: 1; white-space: pre;" d="M-500.06 231.62Q-561.18 231.62-609.71 206.09Q-658.24 180.57-685.57 135.27Q-712.89 89.98-712.89 32.46L-712.89 32.46Q-712.89-25.06-685.57-70.36Q-658.24-115.66-609.71-141.18Q-561.18-166.71-500.06-166.71L-500.06-166.71Q-438.95-166.71-390.78-141.18Q-342.60-115.66-315.28-70.36Q-287.96-25.06-287.96 32.46L-287.96 32.46Q-287.96 89.98-315.28 135.27Q-342.60 180.57-390.78 206.09Q-438.95 231.62-500.06 231.62L-500.06 231.62ZM-500.06 139.59Q-456.92 139.59-429.24 110.47Q-401.56 81.35-401.56 32.46L-401.56 32.46Q-401.56-16.44-429.24-45.56Q-456.92-74.68-500.06-74.68L-500.06-74.68Q-543.20-74.68-571.25-45.56Q-599.29-16.44-599.29 32.46L-599.29 32.46Q-599.29 81.35-571.25 110.47Q-543.20 139.59-500.06 139.59L-500.06 139.59ZM79.45-160.96L185.86-160.96L185.86 161.16Q185.86 267.57 130.50 319.34Q75.14 371.10-31.28 371.10L-31.28 371.10Q-87.36 371.10-137.69 357.44Q-188.02 343.78-221.09 317.90L-221.09 317.90L-176.51 237.37Q-152.07 257.50-114.68 269.37Q-77.29 281.23-39.90 281.23L-39.90 281.23Q18.33 281.23 46.02 254.99Q73.70 228.74 73.70 175.54L73.70 175.54L73.70 159.00Q29.84 207.17-48.53 207.17L-48.53 207.17Q-101.74 207.17-145.96 183.81Q-190.18 160.44-216.06 118.02Q-241.94 75.60-241.94 20.23L-241.94 20.23Q-241.94-35.13-216.06-77.55Q-190.18-119.97-145.96-143.34Q-101.74-166.71-48.53-166.71L-48.53-166.71Q35.59-166.71 79.45-111.34L79.45-111.34L79.45-160.96ZM-26.24 115.14Q18.33 115.14 46.74 88.90Q75.14 62.65 75.14 20.23L75.14 20.23Q75.14-22.19 46.74-48.43Q18.33-74.68-26.24-74.68L-26.24-74.68Q-70.82-74.68-99.58-48.43Q-128.34-22.19-128.34 20.23L-128.34 20.23Q-128.34 62.65-99.58 88.90Q-70.82 115.14-26.24 115.14L-26.24 115.14ZM571.96-307.63L684.13-307.63L684.13 225.87L577.00 225.87L577.00 181.29Q535.30 231.62 456.21 231.62L456.21 231.62Q401.56 231.62 357.34 207.17Q313.12 182.73 287.96 137.43Q262.79 92.13 262.79 32.46L262.79 32.46Q262.79-27.22 287.96-72.52Q313.12-117.82 357.34-142.26Q401.56-166.71 456.21-166.71L456.21-166.71Q530.26-166.71 571.96-119.97L571.96-119.97L571.96-307.63ZM475.62 139.59Q518.04 139.59 546.08 110.47Q574.12 81.35 574.12 32.46L574.12 32.46Q574.12-16.44 546.08-45.56Q518.04-74.68 475.62-74.68L475.62-74.68Q432.48-74.68 404.44-45.56Q376.40-16.44 376.40 32.46L376.40 32.46Q376.40 81.35 404.44 110.47Q432.48 139.59 475.62 139.59L475.62 139.59Z"/></g>
</svg>